<svg width="50" height="50" viewBox="0 0 50 50" fill="none" xmlns="http://www.w3.org/2000/svg">
<path d="M26.8741 42.6545C28.1741 39.0795 30.271 35.7159 33.1626 32.8386L33.2154 32.7864C36.1116 29.9205 39.4947 27.8409 43.0937 26.5432C45.3353 25.7364 47.6596 25.2318 50 25.0341C47.6665 24.9068 45.3491 24.4727 43.1144 23.7364C39.3638 22.5045 35.8498 20.4159 32.8732 17.4705C29.8989 14.5273 27.7859 11.0455 26.5411 7.33636C25.7418 4.95909 25.2986 2.48636 25.209 0L25.1125 0.0954546C24.9403 2.56364 24.4189 5.01364 23.5508 7.37045C22.2439 10.9159 20.147 14.2523 17.2669 17.1114L17.2462 17.1318C14.3684 19.9795 11.006 22.0545 7.42995 23.3523C5.03215 24.2227 2.54019 24.7432 0.0298574 24.9159L0 24.9455C2.50804 25.0341 5 25.4727 7.39779 26.2591C11.1507 27.4932 14.6739 29.5818 17.6527 32.5318C20.6339 35.4818 22.7423 38.9636 23.9894 42.6795C24.7864 45.0523 25.2297 47.5182 25.3192 50L25.3353 49.9841C25.4938 47.5 26.006 45.0295 26.8695 42.6523L26.8741 42.6545Z" fill="#0E7C7B"/>
</svg>
